<svg width="81" height="80" viewBox="0 0 81 80" fill="none" xmlns="http://www.w3.org/2000/svg">
<rect x="0.5" width="80" height="80" rx="40" fill="#005695" fill-opacity="0.04"/>
<mask id="mask0_1489_21648" style="mask-type:alpha" maskUnits="userSpaceOnUse" x="12" y="14" width="57" height="56">
<rect x="12.5" y="14" width="56" height="56" fill="#EBF1F7"/>
</mask>
<g mask="url(#mask0_1489_21648)">
<path d="M40.3709 25.4472L27.9959 28.6618C27.1105 28.8919 26.5 29.6277 26.5 30.4649V40.0277C26.5 46.0839 29.7168 51.7672 35.137 55.2872L39.7388 58.2758C40.4559 58.7414 41.4191 58.7414 42.1362 58.2758L46.7381 55.2872C52.1581 51.7672 55.375 46.0839 55.375 40.0277V30.4649C55.375 29.6277 54.7645 28.8919 53.8791 28.6618L41.5041 25.4472C41.1339 25.3509 40.7412 25.3509 40.3709 25.4472Z" stroke="#005695" stroke-width="2" stroke-linecap="square" stroke-linejoin="round"/>
<path d="M49.2476 37.7359V37.0449C49.091 37.1714 48.6793 37.4688 48.2622 37.4688C47.7347 37.4688 47.2065 36.9865 47.2065 36.9865C47.2065 36.9865 47.2008 36.993 47.189 37.0022V37.0011C47.1079 37.0717 46.7358 37.3763 46.3276 37.4519H46.326C46.2984 37.4575 46.2691 37.4616 46.2405 37.4644H46.2358C46.2071 37.4674 46.1792 37.4688 46.1504 37.4688C45.6229 37.4686 45.0966 36.9865 45.0966 36.9865H45.096V36.9871L45.0947 36.9865C45.0947 36.9865 44.5673 37.4688 44.0398 37.4688C43.7967 37.4688 43.5563 37.3661 43.3651 37.256C43.2596 37.1938 43.1532 37.1022 43.0613 36.9859C42.9718 36.8733 42.9093 36.7536 42.873 36.6398H42.8713L40.9693 30.625L38.8277 37.3574L31.75 37.3092L37.5041 41.4235L35.2718 48.125L40.9693 43.935L46.6656 48.125L44.6661 42.1226C44.4825 42.2139 44.2609 42.2945 44.0363 42.2945C43.5093 42.2945 42.9812 41.8533 42.9812 41.8533C42.9812 41.8533 42.4541 42.2945 41.9261 42.2945C41.3992 42.2945 40.871 41.8131 40.871 41.8131C40.871 41.8131 40.8706 41.8533 40.8702 41.8533V41.0672C40.8706 41.0672 40.871 41.0672 40.871 41.0672C40.871 41.0672 41.3992 41.5498 41.9261 41.5498C42.4541 41.5498 42.9812 41.0672 42.9812 41.0672C42.9812 41.0672 43.5093 41.5498 44.0363 41.5498C44.4971 41.5498 44.9573 41.1824 45.0674 41.089V40.2548C44.955 40.3421 44.4971 40.6755 44.0379 40.6755C43.5098 40.6755 42.9836 40.2338 42.9836 40.2338C42.9836 40.2338 42.4554 40.6755 41.9278 40.6755C41.4004 40.6755 40.8728 40.1935 40.8728 40.1935C40.8728 40.1935 40.8722 40.2338 40.8716 40.2338V39.4482C40.8722 39.4482 40.8728 39.4482 40.8728 39.4482C40.8728 39.4482 41.4004 39.9302 41.9278 39.9302C42.4554 39.9302 42.9836 39.4482 42.9836 39.4482C42.9836 39.4482 43.5098 39.9302 44.0379 39.9302C44.5655 39.9302 45.0937 39.4482 45.0937 39.4482L45.0943 39.4485V39.4482C45.0947 39.4482 45.096 39.4482 45.096 39.4482C45.096 39.4482 45.6217 39.9297 46.1487 39.9302C46.1779 39.9302 46.2065 39.9291 46.2347 39.9262C46.2358 39.9262 46.2374 39.9262 46.2393 39.9257C46.2681 39.923 46.2967 39.9189 46.3253 39.9136C46.3253 39.9136 46.3253 39.9133 46.326 39.9133C46.4954 39.8821 46.6569 39.8112 46.7955 39.7342L47.1786 39.4601V38.6157C47.082 38.6889 46.7223 38.9469 46.326 39.0199C46.3253 39.0199 46.3253 39.0202 46.3253 39.0202C46.2967 39.025 46.2681 39.0292 46.2393 39.0318C46.2374 39.0321 46.2358 39.0321 46.2347 39.0324C46.2065 39.035 46.1785 39.0365 46.1499 39.0365H46.1487C45.6217 39.0365 45.0937 38.5947 45.0937 38.5947C45.0937 38.5947 44.5655 39.0365 44.0379 39.0365C43.5098 39.0365 42.9836 38.5947 42.9836 38.5947C42.9836 38.5947 42.4554 39.0365 41.9278 39.0365C41.4004 39.0365 40.8728 38.5548 40.8728 38.5548C40.8728 38.5548 40.8722 38.5947 40.8716 38.5947V37.8088C40.8722 37.8088 40.8728 37.8088 40.8728 37.8088V37.8316C40.8728 37.8316 40.8734 37.8205 40.8734 37.8095C40.8787 37.814 41.4027 38.2915 41.9278 38.2915C42.1647 38.2915 42.3993 38.1934 42.5888 38.086C42.8215 37.9652 42.9847 37.8316 42.9847 37.8316C42.9847 37.8316 43.1326 37.9538 43.3484 38.07C43.5421 38.1835 43.7888 38.2915 44.0379 38.2915C44.2748 38.2915 44.5087 38.1937 44.6976 38.0866C44.931 37.9658 45.0947 37.8316 45.0947 37.8316C45.0947 37.8316 45.2539 37.9623 45.4819 38.0817C45.672 38.1905 45.9088 38.2912 46.1487 38.2915C46.1779 38.2915 46.2065 38.2897 46.2347 38.2874C46.2358 38.2871 46.2374 38.2868 46.2393 38.2868C46.2681 38.2839 46.2967 38.2798 46.3253 38.2746C46.3253 38.2746 46.3253 38.2746 46.326 38.2746C46.5364 38.2357 46.7358 38.1363 46.8919 38.0391C47.0802 37.9332 47.2065 37.8316 47.2065 37.8316C47.2065 37.8316 47.3574 37.9556 47.5757 38.0726C47.7686 38.1852 48.0138 38.2915 48.2612 38.2915C48.4886 38.2915 48.7136 38.201 48.8986 38.0988C49.0511 38.0219 49.1763 37.9375 49.2476 37.8849V37.8666C49.2487 37.8658 49.249 37.8654 49.25 37.8646V37.7359H49.2476Z" fill="#005695"/>
</g>
</svg>

