<svg
  width="13"
  height="13"
  viewBox="0 0 13 13"
  fill="none"
  xmlns="http://www.w3.org/2000/svg"
>
  <path
    d="M4.07422 11.05C3.94922 10.925 3.88672 10.777 3.88672 10.606C3.88672 10.435 3.94922 10.2872 4.07422 10.1625L7.73672 6.5L4.06172 2.825C3.94505 2.70833 3.88672 2.5625 3.88672 2.3875C3.88672 2.2125 3.94922 2.0625 4.07422 1.9375C4.19922 1.8125 4.34722 1.75 4.51822 1.75C4.68922 1.75 4.83705 1.8125 4.96172 1.9375L9.16172 6.15C9.21172 6.2 9.24722 6.25417 9.26822 6.3125C9.28922 6.37083 9.29955 6.43333 9.29922 6.5C9.29922 6.56667 9.28872 6.62917 9.26772 6.6875C9.24672 6.74583 9.21139 6.8 9.16172 6.85L4.94922 11.0625C4.83255 11.1792 4.68872 11.2375 4.51772 11.2375C4.34672 11.2375 4.19889 11.175 4.07422 11.05Z"
    fill="white"
  />
</svg>