<svg width="70" height="69" viewBox="0 0 70 69" fill="none" xmlns="http://www.w3.org/2000/svg">
<g clip-path="url(#clip0_1489_21572)">
<path d="M67.5 34.5C67.5 52.4493 52.9493 67 35 67C17.0509 67 2.5 52.4493 2.5 34.5C2.5 16.5507 17.0509 2 35 2C52.9493 2 67.5 16.5507 67.5 34.5Z" fill="#739BB8"/>
<path d="M26.7773 52.2407H55.7657V49.966H26.7773V52.2407Z" fill="white"/>
<path fill-rule="evenodd" clip-rule="evenodd" d="M57.0513 51.1056C57.0513 52.361 56.0329 53.3794 54.7766 53.3794C53.5202 53.3794 52.502 52.361 52.502 51.1056C52.502 49.8492 53.5202 48.8318 54.7766 48.8318C56.0329 48.8318 57.0513 49.8492 57.0513 51.1056Z" fill="white"/>
<mask id="mask0_1489_21572" style="mask-type:luminance" maskUnits="userSpaceOnUse" x="2" y="1" width="66" height="66">
<path d="M67.4318 34.4523C67.4318 52.3757 52.8964 66.9058 34.9659 66.9058C17.0354 66.9058 2.5 53.5931 2.5 34.4523C2.5 16.5289 17.0354 1.99879 34.9659 1.99879C52.8964 1.99879 67.4318 16.5289 67.4318 34.4523Z" fill="white"/>
</mask>
<g mask="url(#mask0_1489_21572)">
<path d="M26.6547 59.5462V58.4093H0.162792V59.424L0.880178 58.7062C0.699965 58.5243 0.439217 58.4087 0.162792 58.4093V59.424L0.880178 58.7062L0.162647 59.4243H1.178C1.17857 59.1473 1.06225 58.886 0.880178 58.7062L0.162647 59.4243H1.178V23.1504H0.162647L0.880178 23.8683C1.06225 23.6884 1.17857 23.4272 1.178 23.1504H0.162647L0.880178 23.8683L0.162792 23.1504V24.1651C0.439217 24.1657 0.699965 24.0502 0.880178 23.8683L0.162792 23.1504V24.1651H26.6547V23.1502L25.9363 23.8675C26.1164 24.0498 26.3782 24.1657 26.6547 24.1651V23.1502L25.9363 23.8675L26.6545 23.1504H25.6394C25.6387 23.4259 25.7541 23.687 25.9363 23.8675L26.6545 23.1504H25.6394V59.4243H26.6545L25.9363 58.707C25.7541 58.8875 25.6387 59.1485 25.6394 59.4243H26.6545L25.9363 58.707L26.6547 59.4243V58.4093C26.3782 58.4087 26.1164 58.5247 25.9363 58.707L26.6547 59.4243V58.4093V59.5462V60.6831C26.9986 60.6838 27.3212 60.5403 27.5455 60.3139C27.7718 60.0893 27.9145 59.7672 27.914 59.4243V23.1504C27.9145 22.8072 27.7718 22.4852 27.5455 22.2605C27.3212 22.0341 26.9986 21.8907 26.6547 21.8913H0.162792C-0.181078 21.8909 -0.5028 22.0337 -0.727373 22.2597C-0.953621 22.4837 -1.09732 22.806 -1.09668 23.1504V59.4243C-1.09732 59.7684 -0.953621 60.0907 -0.727373 60.3147C-0.5028 60.5408 -0.181078 60.6836 0.162792 60.6831H26.6547V59.5462Z" fill="white"/>
<path fill-rule="evenodd" clip-rule="evenodd" d="M2.5 35.6339H20.443C20.8933 35.6339 21.2582 35.9988 21.2582 36.4486V48.3482C21.2582 48.7983 20.8933 49.1631 20.443 49.1631H3.3152C2.86487 49.1631 2.5 48.7983 2.5 48.3482V35.6339Z" fill="white"/>
<path fill-rule="evenodd" clip-rule="evenodd" d="M14.4962 25.6134C13.7536 25.6134 13.1514 26.2155 13.1514 26.9583C13.1514 27.6992 13.7536 28.3022 14.4962 28.3022C15.2374 28.3022 15.8396 27.6992 15.8396 26.9583C15.8396 26.2155 15.2374 25.6134 14.4962 25.6134Z" fill="white"/>
<path fill-rule="evenodd" clip-rule="evenodd" d="M19.9157 25.6117C19.1715 25.6117 18.5713 26.2143 18.5713 26.9575C18.5713 27.699 19.1715 28.3022 19.9157 28.3022C20.6586 28.3022 21.2595 27.699 21.2595 26.9575C21.2595 26.2143 20.6586 25.6117 19.9157 25.6117Z" fill="white"/>
<path fill-rule="evenodd" clip-rule="evenodd" d="M9.80448 25.9509H2.64497C2.29423 25.9509 2.00586 26.4036 2.00586 26.9565C2.00586 27.5121 2.29423 27.9619 2.64497 27.9619H9.80448C10.1588 27.9619 10.4479 27.5121 10.4479 26.9565C10.4479 26.4036 10.1588 25.9509 9.80448 25.9509Z" fill="white"/>
<path d="M0.0419922 54.3777H26.778V53.137H0.0419922V54.3777Z" fill="white"/>
<path d="M0.0419922 31.2722H26.778V30.0315H0.0419922V31.2722Z" fill="white"/>
</g>
<path d="M43.1615 48.1763C43.2839 47.7842 43.3927 47.4036 43.4876 47.0216C43.5863 46.6425 43.6715 46.2652 43.7463 45.8907C43.9008 45.144 44.0143 44.4082 44.0865 43.684C44.2395 42.2373 44.2079 40.8395 44.041 39.5056C43.9539 38.8379 43.8195 38.1858 43.6622 37.5462L43.5319 37.0691L43.4996 36.9505L43.4616 36.8326L43.3865 36.5974C43.2947 36.2828 43.1721 35.9752 43.0633 35.6662C43.0139 35.5105 42.9363 35.3615 42.8778 35.2079C42.8137 35.056 42.7583 34.902 42.6882 34.7519C42.6158 34.6024 42.5459 34.4524 42.4785 34.3015L42.3763 34.0757L42.2597 33.8544C42.1811 33.7072 42.1079 33.5577 42.0331 33.4091C41.9977 33.3341 41.9564 33.2611 41.9133 33.1885L41.7878 32.9703C41.7041 32.8247 41.6247 32.6769 41.5432 32.53L41.2737 32.099L40.667 31.101L40.5028 30.8234C40.4474 30.7318 40.3941 30.6382 40.3444 30.5412L40.0417 29.9653L39.894 29.6757C39.8465 29.5777 39.8031 29.4769 39.7578 29.3776C39.6682 29.178 39.5772 28.9793 39.4916 28.7784L39.4269 28.6281L39.3688 28.4733L39.2526 28.164C39.1763 27.9571 39.0963 27.7535 39.0307 27.5421C38.9048 27.1156 38.7635 26.6991 38.6742 26.26C38.6266 26.0424 38.5694 25.8284 38.5315 25.6083L38.4248 24.9466C38.309 24.0596 38.2499 23.1629 38.3125 22.268C38.4186 20.4819 38.9083 18.7321 39.7447 17.2237C40.1616 16.4688 40.6623 15.7732 41.228 15.1537C41.8031 14.5429 42.4313 13.9843 43.1615 13.5928C42.0114 16.6259 41.8002 19.4967 42.3013 22.0837C42.3354 22.2457 42.3716 22.4067 42.4012 22.5672L42.5225 23.0457C42.5579 23.2044 42.6094 23.362 42.6559 23.5191C42.7047 23.6757 42.744 23.8326 42.8021 23.9877L42.962 24.4524C43.0188 24.6059 43.0821 24.7591 43.1406 24.9121L43.2298 25.1413C43.2579 25.2178 43.2982 25.292 43.3296 25.3681L43.5275 25.8216C43.5947 25.9723 43.6764 26.1197 43.7459 26.27L43.8541 26.494L43.9078 26.6061L43.9688 26.7162C44.0513 26.8628 44.1285 27.0112 44.2073 27.159C44.247 27.2328 44.284 27.3072 44.3255 27.3804L44.4568 27.5981L44.7116 28.0365C44.7521 28.1103 44.7976 28.1824 44.8452 28.2535L44.985 28.4687L45.5921 29.4417L45.9273 29.9976C46.0307 30.1896 46.1356 30.3806 46.2365 30.5741L46.3872 30.8641C46.4383 30.9602 46.4875 31.0574 46.5316 31.1582C46.6228 31.3579 46.7154 31.557 46.8027 31.7581L46.9346 32.0593L47.0523 32.3689C47.1313 32.575 47.208 32.7819 47.282 32.9893C47.3556 33.197 47.4146 33.4122 47.4805 33.6233C47.513 33.7291 47.5448 33.8351 47.5748 33.9416C47.6075 34.0472 47.634 34.1549 47.6584 34.2639L47.8087 34.9129L47.8438 35.0754L47.8716 35.2404L47.9257 35.5698C48.008 36.0062 48.0405 36.4529 48.0829 36.8942C48.1342 37.7827 48.1286 38.6724 48.0194 39.5484C47.8077 41.2998 47.27 42.9831 46.4422 44.4642C46.0309 45.2056 45.5487 45.8981 45.0046 46.5275C44.7352 46.8434 44.4405 47.1387 44.139 47.4193C43.8305 47.6949 43.5147 47.9604 43.1615 48.1763Z" fill="white"/>
<path d="M48.9651 39.8533C49.0507 39.5083 49.1264 39.1777 49.1901 38.8468C49.2577 38.519 49.3137 38.1938 49.3617 37.8726C49.462 37.2328 49.5294 36.6075 49.5641 35.9971C49.6411 34.7773 49.5701 33.6183 49.3997 32.5237C49.0437 30.3334 48.2126 28.3773 47.0351 26.475L46.5227 25.6295C46.3302 25.3151 46.1577 24.9819 45.9867 24.6495L45.8606 24.3992C45.82 24.3145 45.7828 24.2272 45.7441 24.1414C45.6676 23.9688 45.5899 23.7971 45.5171 23.623C45.4404 23.4521 45.3816 23.2677 45.314 23.0909C45.2489 22.9117 45.1815 22.7352 45.1262 22.5518C45.0197 22.182 44.9013 21.8209 44.8272 21.4397C44.7879 21.2506 44.7402 21.0652 44.7096 20.8742L44.6235 20.2997C44.5321 19.5297 44.4916 18.7517 44.5588 17.9765C44.6752 16.4291 45.1339 14.9205 45.8947 13.6391C46.2739 12.9981 46.7262 12.4125 47.2351 11.898C47.7521 11.3916 48.3145 10.9343 48.9651 10.6321C48.1255 13.2997 48.0695 15.6824 48.5478 17.7919C48.5798 17.9244 48.6139 18.0555 48.6417 18.1861L48.7523 18.5754C48.7848 18.7043 48.8302 18.8327 48.8716 18.9603C48.915 19.0876 48.9504 19.2147 49.0006 19.3408C49.176 19.8468 49.3983 20.3402 49.6231 20.8314C49.6799 20.954 49.749 21.0741 49.8071 21.1966C49.8708 21.3182 49.9219 21.4418 49.9943 21.5609C50.0637 21.6804 50.1279 21.8019 50.1936 21.9228C50.2267 21.9832 50.2575 22.0442 50.2922 22.1039L50.4018 22.2821L50.6134 22.6422C50.68 22.7633 50.7658 22.8784 50.8407 22.9973L51.3537 23.8177C52.1323 25.0873 52.7613 26.4924 53.1209 27.9891L53.2464 28.552C53.2897 28.7385 53.3105 28.9326 53.3424 29.1219C53.4102 29.5002 53.434 29.8876 53.4663 30.27C53.5012 31.0402 53.4857 31.8102 53.3782 32.5665C53.1699 34.0786 52.6714 35.5231 51.9195 36.7772C51.546 37.4052 51.1099 37.9869 50.6198 38.5094C50.1266 39.0277 49.5894 39.505 48.9651 39.8533Z" fill="white"/>
</g>
<rect x="1.5" y="1" width="67" height="67" rx="33.5" stroke="white" stroke-width="2"/>
<defs>
<clipPath id="clip0_1489_21572">
<rect x="2.5" y="2" width="65" height="65" rx="32.5" fill="white"/>
</clipPath>
</defs>
</svg>
