<svg width="70" height="69" viewBox="0 0 70 69" fill="none" xmlns="http://www.w3.org/2000/svg">
<rect x="1.5" y="1" width="67" height="67" rx="33.5" fill="white"/>
<path d="M67.5 34.5C67.5 52.449 52.949 67 35 67C17.051 67 2.5 52.449 2.5 34.5C2.5 16.551 17.051 2 35 2C52.949 2 67.5 16.551 67.5 34.5Z" fill="#005695"/>
<path d="M53.2019 30.8049C52.8552 30.8049 52.5052 30.7036 52.1964 30.4941L35.019 18.0315L17.8416 30.4941C17.0223 31.05 15.9054 30.8373 15.348 30.0162C14.7907 29.1952 15.0058 28.0789 15.8262 27.5219L34.0113 14.3752C34.6188 13.9619 35.4192 13.9619 36.0267 14.3752L54.2107 27.5219C55.0333 28.0789 55.2473 29.1952 54.6911 30.0162C54.3433 30.5276 53.7782 30.8049 53.2019 30.8049Z" fill="white"/>
<path d="M51.1615 53.6555L51.0802 53.6533L50.4771 53.6165H35.0205V50.9451H49.825V27.7989H52.498V52.3198C52.498 52.6885 52.3453 53.0395 52.0778 53.2923C51.8292 53.5263 51.5015 53.6555 51.1615 53.6555Z" fill="white"/>
<path d="M19.2271 53.6555L19.3085 53.6533L19.9115 53.6165H35.3682V50.9451H20.5637V27.7989H17.8906V52.3198C17.8906 52.6885 18.0433 53.0395 18.3109 53.2923C18.5594 53.5263 18.8872 53.6555 19.2271 53.6555Z" fill="white"/>
<path d="M39.9504 38.1C43.2917 38.1 46.0004 35.3913 46.0004 32.05C46.0004 28.7087 43.2917 26 39.9504 26C36.6091 26 33.9004 28.7087 33.9004 32.05C33.9004 35.3913 36.6091 38.1 39.9504 38.1Z" fill="white" stroke="white" stroke-width="0.5"/>
<path d="M42.8585 30.8028C42.4138 30.8028 42.1888 31.1915 41.8557 31.5008C41.6504 31.711 41.3858 31.8595 41.0959 31.9249C40.9987 31.7764 40.8745 31.6474 40.7286 31.5449C40.8385 30.7728 40.9393 29.8574 40.8349 29.6454C40.6476 29.2655 40.2173 28.8838 39.3261 28.8838C38.4349 28.8838 37.9902 29.481 37.9902 29.8009C37.9902 30.2373 38.3863 30.4582 38.7014 30.7851C38.9084 30.9795 39.0561 31.2286 39.1263 31.5025C38.9661 31.6033 38.8292 31.734 38.7194 31.886C37.9398 31.78 37.0216 31.6845 36.8092 31.7853C36.4221 31.969 36.0332 32.3914 36.0332 33.266C36.0332 34.1407 36.6417 34.5772 36.9676 34.5772C37.4123 34.5772 37.6374 34.1884 37.9704 33.8792C38.1703 33.6725 38.4259 33.5276 38.7068 33.4586C38.8076 33.6106 38.939 33.7431 39.0921 33.8474C38.9823 34.6178 38.8832 35.5261 38.9877 35.7364C39.1749 36.1163 39.6052 36.498 40.4964 36.498C41.3876 36.498 41.8305 35.9078 41.8305 35.5826C41.8305 35.1462 41.4344 34.9253 41.1193 34.5984C40.9033 34.3969 40.7538 34.1372 40.6854 33.8527C40.8349 33.7573 40.9663 33.6336 41.0707 33.4905C41.8593 33.6 42.8063 33.699 43.0223 33.5965C43.4094 33.4127 43.7983 32.9904 43.7983 32.1157C43.7983 31.241 43.1916 30.8046 42.8621 30.8046L42.8585 30.8028Z" fill="#739BB8"/>
<path d="M39.3263 29.3676C39.6936 29.3676 40.1707 29.4489 40.3759 29.827C40.3867 29.903 40.4119 30.2511 40.2391 31.4757C40.2139 31.6541 40.2913 31.8308 40.4407 31.9369C40.5362 32.004 40.6172 32.0888 40.682 32.186C40.7738 32.3274 40.9322 32.4087 41.0979 32.4087C41.1357 32.4087 41.1717 32.4051 41.2095 32.3963C41.5912 32.3097 41.9351 32.1189 42.2087 31.8432C42.2951 31.7619 42.3708 31.6806 42.4446 31.6011C42.6444 31.3855 42.7452 31.2901 42.8551 31.2866C42.9595 31.306 43.3034 31.5428 43.3034 32.1118C43.3034 32.6331 43.1467 32.9794 42.8335 33.142C42.8101 33.1455 42.7578 33.1508 42.6624 33.1508C42.351 33.1508 41.8234 33.1013 41.1393 33.0059C41.1159 33.0024 41.0925 33.0006 41.0709 33.0006C40.9124 33.0006 40.7612 33.0748 40.6676 33.2056C40.5992 33.2992 40.5145 33.3805 40.4155 33.4424C40.2409 33.5537 40.1563 33.7604 40.2031 33.9583C40.2913 34.333 40.4875 34.6705 40.7684 34.9373C40.8512 35.0221 40.934 35.0963 41.0151 35.1688C41.2347 35.3649 41.3319 35.4639 41.3355 35.5717C41.3157 35.6724 41.0745 36.0063 40.4965 36.0063C39.9654 36.0063 39.6125 35.8508 39.4469 35.5451C39.4361 35.4692 39.4109 35.1228 39.5837 33.9089C39.6089 33.7269 39.5297 33.5466 39.3749 33.4424C39.2741 33.3735 39.1895 33.2886 39.1228 33.1879C39.0292 33.0483 38.8726 32.967 38.7087 32.967C38.6691 32.967 38.6295 32.9723 38.5899 32.9812C38.2208 33.0713 37.886 33.2604 37.6231 33.5307C37.5367 33.612 37.4611 33.6933 37.3873 33.771C37.1874 33.9849 37.0866 34.082 36.9786 34.0856C36.8741 34.0644 36.5321 33.8258 36.5321 33.2621C36.5321 32.9017 36.6149 32.4352 37.002 32.232C37.0254 32.2284 37.0776 32.2231 37.173 32.2231C37.4755 32.2231 37.9886 32.2708 38.6547 32.3609C38.6781 32.3645 38.6997 32.3662 38.7232 32.3662C38.8834 32.3662 39.0364 32.2885 39.13 32.1577C39.2021 32.057 39.2903 31.9722 39.3965 31.9068C39.5747 31.7937 39.6612 31.5817 39.6107 31.3802C39.5189 31.0198 39.3281 30.6946 39.0562 30.4366C38.9734 30.3518 38.8906 30.2776 38.8096 30.2052C38.5917 30.009 38.4927 29.9101 38.4891 29.804C38.5107 29.7016 38.7538 29.3658 39.3281 29.3658M39.3281 28.8799C38.4369 28.8799 37.9922 29.4771 37.9922 29.797C37.9922 30.2334 38.3883 30.4543 38.7033 30.7812C38.9104 30.9756 39.058 31.2247 39.1282 31.4986C38.968 31.5994 38.8312 31.7301 38.7214 31.8821C38.1758 31.8079 37.5619 31.7389 37.1712 31.7389C37.0038 31.7389 36.8759 31.7513 36.8111 31.7814C36.424 31.9651 36.0352 32.3875 36.0352 33.2621C36.0352 34.1368 36.6437 34.5733 36.9696 34.5733C37.4143 34.5733 37.6393 34.1845 37.9724 33.8753C38.1722 33.6686 38.4279 33.5237 38.7087 33.4547C38.8096 33.6067 38.941 33.7392 39.094 33.8435C38.9842 34.6139 38.8852 35.5222 38.9896 35.7325C39.1769 36.1124 39.6071 36.494 40.4983 36.494C41.3895 36.494 41.8324 35.9039 41.8324 35.5787C41.8324 35.1423 41.4364 34.9214 41.1213 34.5945C40.9052 34.393 40.7558 34.1333 40.6874 33.8488C40.8368 33.7534 40.9682 33.6297 41.0727 33.4865C41.629 33.5625 42.2627 33.635 42.6642 33.635C42.8317 33.635 42.9595 33.6226 43.0243 33.5926C43.4114 33.4088 43.8003 32.9865 43.8003 32.1118C43.8003 31.2371 43.1935 30.8007 42.8641 30.8007C42.4194 30.8007 42.1943 31.1894 41.8612 31.4986C41.656 31.7089 41.3913 31.8573 41.1015 31.9227C41.0043 31.7743 40.88 31.6453 40.7342 31.5428C40.844 30.7706 40.9448 29.8553 40.8404 29.6432C40.6532 29.2633 40.2229 28.8816 39.3317 28.8816L39.3281 28.8799Z" fill="#739BB8"/>
<path d="M39.8462 33.1722C40.1226 33.1722 40.3467 32.9522 40.3467 32.6809C40.3467 32.4096 40.1226 32.1897 39.8462 32.1897C39.5698 32.1897 39.3457 32.4096 39.3457 32.6809C39.3457 32.9522 39.5698 33.1722 39.8462 33.1722Z" fill="white"/>
<path d="M43.2388 28.8535L42.8715 28.9578L42.5006 28.7581L42.8697 28.5602L43.237 28.6662L43.2766 28.5301L43.0479 28.4648L43.2784 28.3411L43.21 28.2174L42.9795 28.3411L43.0461 28.1166L42.9075 28.0778L42.7995 28.4382L42.425 28.6397V28.2191L42.6951 27.9541L42.5924 27.8534L42.425 28.0195V27.7615H42.281V28.0195L42.1135 27.8534L42.0109 27.9541L42.281 28.2191V28.6397L41.9029 28.4382L41.7967 28.0778L41.658 28.1166L41.7246 28.3411L41.4942 28.2174L41.4258 28.3411L41.6562 28.4648L41.4276 28.5301L41.469 28.6662L41.8345 28.5602L42.2036 28.7581L41.8327 28.9578L41.4654 28.8535L41.4258 28.9878L41.6544 29.0532L41.4276 29.1769L41.496 29.2988L41.7228 29.1769L41.6562 29.4013L41.7949 29.4419L41.9011 29.0815L42.281 28.8782V29.3023L42.0109 29.5656L42.1135 29.6663L42.281 29.5002V29.7547H42.425V29.5002L42.5924 29.6663L42.6951 29.5656L42.425 29.3023V28.8782L42.8013 29.0815L42.9093 29.4419L43.0461 29.4013L42.9795 29.1769L43.2064 29.2988L43.2766 29.1769L43.0497 29.0532L43.2784 28.9878L43.2388 28.8535Z" fill="#739BB8"/>
<path d="M37.3547 30.6064L37.1225 30.6736L36.8884 30.5481L37.1207 30.4227L37.3529 30.488L37.3781 30.4032L37.2341 30.3608L37.3799 30.2831L37.3367 30.2053L37.1909 30.2831L37.2323 30.1399L37.1459 30.1152L37.0774 30.3449L36.8398 30.4721V30.2053L37.0108 30.0375L36.946 29.9738L36.8398 30.0781V29.9155H36.748V30.0781L36.6418 29.9738L36.5769 30.0375L36.748 30.2053V30.4721L36.5085 30.3449L36.4419 30.1152L36.3537 30.1399L36.3951 30.2831L36.2493 30.2053L36.2061 30.2831L36.3519 30.3608L36.2079 30.4032L36.2331 30.488L36.4653 30.4227L36.6994 30.5481L36.4635 30.6736L36.2313 30.6064L36.2061 30.693L36.3501 30.7354L36.2061 30.8114L36.2511 30.8909L36.3951 30.8132L36.3519 30.9545L36.4401 30.9811L36.5067 30.7513L36.748 30.6223V30.8909L36.5769 31.0588L36.6418 31.1224L36.748 31.0182V31.179H36.8398V31.0182L36.946 31.1224L37.0108 31.0588L36.8398 30.8909V30.6223L37.0774 30.7513L37.1459 30.9811L37.2341 30.9545L37.1909 30.8132L37.3349 30.8909L37.3781 30.8114L37.2341 30.7354L37.3799 30.693L37.3547 30.6064Z" fill="#739BB8"/>
<path d="M30.05 47.9999C33.3913 47.9999 36.1 45.2912 36.1 41.9499C36.1 38.6086 33.3913 35.8999 30.05 35.8999C26.7087 35.8999 24 38.6086 24 41.9499C24 45.2912 26.7087 47.9999 30.05 47.9999Z" fill="white" stroke="white" stroke-width="0.5"/>
<path d="M32.9788 40.9744C33.4691 42.8023 32.1251 43.3736 32.1251 43.3736C33.872 40.5381 29.4807 38.4235 30.2098 37.1875C28.1035 38.0641 29.0673 38.9407 29.0383 40.4488C29.0113 41.8551 27.4034 41.5684 27.5862 40.4633C27.5987 40.3823 27.6216 40.2992 27.6548 40.2099C24.7466 42.819 26.0262 47.1833 29.9876 47.1833C30.3303 47.1833 30.6523 47.1501 30.9556 47.0857C33.789 46.4895 34.813 43.2905 32.9788 40.9764V40.9744Z" fill="#739BB8"/>
<path d="M29.7637 47.1314C29.718 47.1314 29.6744 47.1314 29.6308 47.1252C29.259 47.0961 28.9619 46.9424 28.7459 46.7181C28.588 46.5519 28.4717 46.3483 28.4073 46.126C28.2432 45.5693 28.3824 44.8984 28.883 44.431C28.883 45.1061 29.6786 45.1269 29.6786 44.4954C29.6786 43.8639 28.9495 43.6063 29.6038 42.7546C29.6038 43.5253 30.3661 43.7226 30.9291 44.3292C31.0724 44.485 31.2033 44.6657 31.3051 44.8901C31.6894 45.7438 31.3155 47.1294 29.7637 47.1294V47.1314Z" fill="white"/>
<path d="M29.6989 38.1157C29.726 38.1759 29.755 38.2361 29.7883 38.2964C29.9835 38.6558 30.2868 39.0276 30.6088 39.4202C31.0533 39.9624 31.556 40.5772 31.8053 41.2149C32.065 41.8776 32.013 42.4696 31.6391 43.0762C31.5082 43.288 31.5311 43.5602 31.6931 43.7492C31.8032 43.878 31.9632 43.9486 32.1273 43.9486C32.2021 43.9486 32.2789 43.9341 32.3516 43.9029C32.6404 43.7804 33.0205 43.502 33.2968 43.0596C33.3716 43.5747 33.3238 44.0961 33.1472 44.5863C32.7858 45.5876 31.9445 46.2959 30.8394 46.5286C30.5693 46.5847 30.2827 46.6137 29.9898 46.6137C29.1983 46.6137 28.5128 46.4226 27.9499 46.0487C27.4472 45.7122 27.065 45.2344 26.8469 44.6674C26.6059 44.04 26.5768 43.3441 26.7575 42.6566C26.8656 42.2494 27.0442 41.8568 27.2893 41.4912C27.2976 41.5016 27.3059 41.5099 27.3122 41.5203C27.5573 41.809 27.9146 41.9752 28.2926 41.9752C28.9117 41.9752 29.5868 41.5016 29.6076 40.463C29.6159 40.0101 29.5494 39.6217 29.4891 39.2789C29.4248 38.905 29.3728 38.608 29.4559 38.4086C29.4954 38.313 29.5764 38.2154 29.6989 38.1198M30.2079 37.1934C28.1015 38.07 29.0654 38.9466 29.0363 40.4547C29.0238 41.1194 28.6562 41.406 28.2926 41.406C27.8876 41.406 27.4887 41.0508 27.5843 40.4692C27.5968 40.3882 27.6196 40.3051 27.6528 40.2158C24.7447 42.8248 26.0243 47.1892 29.9856 47.1892C30.3284 47.1892 30.6503 47.1559 30.9536 47.0915C33.787 46.4953 34.8111 43.2964 32.9769 40.9823C33.4671 42.8103 32.1231 43.3815 32.1231 43.3815C33.8701 40.5461 29.4788 38.4314 30.2079 37.1954V37.1934Z" fill="#739BB8"/>
<rect x="1.5" y="1" width="67" height="67" rx="33.5" stroke="white" stroke-width="2"/>
</svg>
