<svg width="70" height="69" viewBox="0 0 70 69" fill="none" xmlns="http://www.w3.org/2000/svg">
<g clip-path="url(#clip0_1489_21598)">
<circle cx="35.5" cy="35" r="40" fill="#005695"/>
<path d="M34.9999 57.1035C34.878 57.1035 34.7563 57.0767 34.6435 57.023L17.9077 49.0295C17.6204 48.8923 17.4375 48.6023 17.4375 48.2839V41.2899C17.4375 40.8335 17.8075 40.4634 18.2639 40.4634C18.7203 40.4634 19.0903 40.8335 19.0903 41.2899V47.7627L34.9999 55.3615L50.9092 47.7627V41.2899C50.9092 40.8335 51.2792 40.4634 51.7356 40.4634C52.192 40.4634 52.562 40.8335 52.562 41.2899V48.2839C52.562 48.6023 52.3792 48.8923 52.092 49.0295L35.3561 57.023C35.2432 57.0767 35.1216 57.1035 34.9999 57.1035Z" fill="white"/>
<path d="M35.0002 57.1035C34.5439 57.1035 34.1738 56.7335 34.1738 56.2771V39.791C34.1738 39.3346 34.5439 38.9646 35.0002 38.9646C35.4566 38.9646 35.8266 39.3346 35.8266 39.791V56.2771C35.8266 56.7335 35.4566 57.1035 35.0002 57.1035Z" fill="white"/>
<path d="M14.3368 38.6424L28.5673 44.8053L33.3766 39.9958L18.4737 34.5054L14.3368 38.6424ZM28.7541 46.6133C28.6433 46.6133 28.5318 46.5912 28.426 46.5453L12.5644 39.676C12.3133 39.5674 12.1323 39.3411 12.081 39.0723C12.0298 38.8036 12.1149 38.5267 12.3084 38.3333L17.6789 32.9629C17.9069 32.7351 18.2465 32.6607 18.5489 32.7718L35.16 38.8916C35.4244 38.9889 35.6209 39.2145 35.6814 39.4897C35.742 39.7651 35.6579 40.052 35.4587 40.2512L29.3388 46.3711C29.1805 46.5294 28.9692 46.6133 28.7541 46.6133Z" fill="white"/>
<path d="M36.623 39.9958L41.4322 44.8053L55.6627 38.6424L51.5259 34.5054L36.623 39.9958ZM41.2454 46.6133C41.0304 46.6133 40.819 46.5296 40.6608 46.3711L34.5408 40.2512C34.3417 40.052 34.2576 39.7651 34.3181 39.4897C34.3786 39.2145 34.5751 38.9889 34.8396 38.8916L51.4507 32.7718C51.753 32.6607 52.0928 32.7351 52.3207 32.9629L57.6911 38.3333C57.8847 38.5267 57.9698 38.8036 57.9186 39.0723C57.8673 39.3411 57.6864 39.5674 57.4351 39.676L41.5735 46.5453C41.4678 46.5912 41.3562 46.6133 41.2454 46.6133Z" fill="white"/>
<path d="M51.7363 34.373C51.6617 34.373 51.5859 34.3629 51.5105 34.3414L35.0001 29.6594L18.4896 34.3414C18.0497 34.466 17.5936 34.2109 17.4691 33.7718C17.3445 33.3328 17.5996 32.876 18.0387 32.7512L34.7745 28.0054C34.922 27.9637 35.078 27.9637 35.2255 28.0054L51.9615 32.7512C52.4005 32.876 52.6556 33.3328 52.5311 33.7718C52.428 34.1355 52.0966 34.373 51.7363 34.373Z" fill="white"/>
<path d="M44.8014 24.9043C47.2364 24.9043 49.2105 22.9304 49.2105 20.4954C49.2105 18.0605 47.2364 16.0866 44.8014 16.0866C42.3665 16.0866 40.3926 18.0605 40.3926 20.4954C40.3926 22.9304 42.3665 24.9043 44.8014 24.9043Z" fill="#739BB8" stroke="white" stroke-width="0.5"/>
<path d="M45.3682 23.084V22.2179H45.669C45.7411 22.2177 45.8097 22.1872 45.858 22.1336L46.4279 21.501C46.5233 21.3946 46.576 21.251 46.576 21.1079V20.8062C46.5799 20.6211 46.4328 20.4682 46.2479 20.4643H46.2444H43.3819H43.3817C43.1968 20.4643 43.0468 20.6143 43.0468 20.7992V20.8062V21.0851C43.0468 21.2418 43.11 21.3917 43.2222 21.501L43.8844 22.146C43.9321 22.1921 43.9957 22.2179 44.0619 22.2179H44.0623H44.2786V23.084C44.2761 23.5538 43.8949 23.9334 43.4251 23.934H41.668C41.7647 24.0493 41.964 24.1583 42.0729 24.2604H43.4255C44.0724 24.2596 44.6015 23.7325 44.605 23.0857V23.084V22.2179C44.605 22.0376 44.4587 21.8915 44.2786 21.8915H44.0908L43.4499 21.2672C43.4011 21.2196 43.3733 21.1533 43.3733 21.0851V20.8062V20.7994L43.3819 20.7907H46.2417L46.2498 20.7994L46.2496 20.8062V21.1081C46.2496 21.1725 46.2254 21.238 46.1853 21.2827L45.6368 21.8915H45.3682C45.188 21.8915 45.0418 22.0376 45.0418 22.2179V23.083C45.0393 23.8738 44.3937 24.5182 43.603 24.5193H42.4628C42.6274 24.6428 42.9801 24.7523 43.1634 24.8457H43.603C44.5761 24.8445 45.3651 24.0569 45.3682 23.084Z" fill="white"/>
<path d="M43.2031 20.2754V20.2659C43.2031 20.0246 43.3994 19.8283 43.6407 19.8283H43.6409H45.9858H45.9908C46.2333 19.8333 46.4257 20.0337 46.4207 20.275L46.0943 20.2682C46.0955 20.2068 46.0468 20.156 45.9854 20.1547H45.9844H43.6409H43.6407C43.5793 20.1547 43.5296 20.2045 43.5296 20.2659L43.2031 20.2754Z" fill="white"/>
<path d="M44.1046 19.6484C44.0145 19.6484 43.9414 19.5753 43.9414 19.4852V18.2983C43.9414 18.2082 44.0145 18.1351 44.1046 18.1351C44.1947 18.1351 44.2678 18.2082 44.2678 18.2983V19.4852C44.2678 19.5753 44.1947 19.6484 44.1046 19.6484Z" fill="white"/>
<path d="M45.4699 19.6484C45.3798 19.6484 45.3066 19.5753 45.3066 19.4852V18.2983C45.3066 18.2082 45.3798 18.1351 45.4699 18.1351C45.5599 18.1351 45.6331 18.2082 45.6331 18.2983V19.4852C45.6331 19.5753 45.5599 19.6484 45.4699 19.6484Z" fill="white"/>
<path d="M25.3014 24.9043C27.7364 24.9043 29.7105 22.9304 29.7105 20.4954C29.7105 18.0605 27.7364 16.0866 25.3014 16.0866C22.8665 16.0866 20.8926 18.0605 20.8926 20.4954C20.8926 22.9304 22.8665 24.9043 25.3014 24.9043Z" fill="#739BB8" stroke="white" stroke-width="0.5"/>
<path d="M24.375 23.0879H28.5954V22.7567H24.375V23.0879Z" fill="white"/>
<path fill-rule="evenodd" clip-rule="evenodd" d="M28.7832 22.9247C28.7832 23.1075 28.6351 23.2559 28.4523 23.2559C28.2692 23.2559 28.1211 23.1075 28.1211 22.9247C28.1211 22.7416 28.2692 22.5935 28.4523 22.5935C28.6351 22.5935 28.7832 22.7416 28.7832 22.9247Z" fill="white"/>
<mask id="mask0_1489_21598" style="mask-type:luminance" maskUnits="userSpaceOnUse" x="20" y="15" width="11" height="11">
<path d="M30.2943 20.498C30.2943 23.1086 28.1783 25.2246 25.5677 25.2246C22.4053 24.3439 20.9434 22.759 20.9434 20.6876C20.9434 18.3718 22.9573 15.7716 25.5677 15.7716C28.1783 15.7716 30.2943 17.8876 30.2943 20.498Z" fill="white"/>
</mask>
<g mask="url(#mask0_1489_21598)">
<path fill-rule="evenodd" clip-rule="evenodd" d="M24.3769 24.1523H20.4844V18.8338H24.3769V24.1523Z" fill="#739BB8"/>
<path d="M24.2543 24.1527V23.9872H20.6058V24.0308H20.6495C20.6494 24.0066 20.63 23.9872 20.6058 23.9872V24.0308H20.6495V18.956H20.6058V18.9996C20.63 18.9996 20.6494 18.9802 20.6495 18.956H20.6058V18.9996H24.2543V18.956H24.2107C24.2109 18.9802 24.2301 18.9996 24.2543 18.9996V18.956H24.2107V24.0308H24.2543V23.9872C24.2301 23.9872 24.2109 24.0066 24.2107 24.0308H24.2543V23.9872V24.1527V24.3184C24.4132 24.3182 24.5417 24.1896 24.5419 24.0308V18.956C24.5417 18.7972 24.4132 18.6686 24.2543 18.6684H20.6058C20.447 18.6686 20.3184 18.7972 20.3184 18.956V24.0308C20.3184 24.1896 20.447 24.3182 20.6058 24.3184H24.2543V24.1527Z" fill="white"/>
<path fill-rule="evenodd" clip-rule="evenodd" d="M20.8418 20.6703H23.454C23.5197 20.6703 23.5728 20.7234 23.5728 20.7891V22.522C23.5728 22.5875 23.5197 22.6406 23.454 22.6406H20.9604C20.8949 22.6406 20.8418 22.5875 20.8418 22.522V20.6703Z" fill="white"/>
<path fill-rule="evenodd" clip-rule="evenodd" d="M22.5882 19.2103C22.4802 19.2103 22.3926 19.2979 22.3926 19.4059C22.3926 19.514 22.4802 19.6016 22.5882 19.6016C22.6963 19.6016 22.7839 19.514 22.7839 19.4059C22.7839 19.2979 22.6963 19.2103 22.5882 19.2103Z" fill="white"/>
<path fill-rule="evenodd" clip-rule="evenodd" d="M23.3773 19.2098C23.269 19.2098 23.1816 19.2977 23.1816 19.4057C23.1816 19.5138 23.269 19.6016 23.3773 19.6016C23.4853 19.6016 23.5729 19.5138 23.5729 19.4057C23.5729 19.2977 23.4853 19.2098 23.3773 19.2098Z" fill="white"/>
<path fill-rule="evenodd" clip-rule="evenodd" d="M21.9069 19.2598H20.8646C20.8134 19.2598 20.7715 19.3257 20.7715 19.4063C20.7715 19.4872 20.8134 19.5527 20.8646 19.5527H21.9069C21.9586 19.5527 22.0005 19.4872 22.0005 19.4063C22.0005 19.3257 21.9586 19.2598 21.9069 19.2598Z" fill="white"/>
<path d="M20.4844 23.4004H24.3769V23.2196H20.4844V23.4004Z" fill="white"/>
<path d="M20.4844 20.0352H24.3769V19.8545H20.4844V20.0352Z" fill="white"/>
</g>
<path d="M26.7604 22.4355C26.7782 22.3783 26.7941 22.323 26.808 22.2674C26.8222 22.2122 26.8346 22.1573 26.8456 22.1027C26.8681 21.9938 26.8846 21.8868 26.8951 21.7812C26.9175 21.5705 26.9127 21.367 26.8885 21.1728C26.8757 21.0755 26.8561 20.9805 26.8334 20.8873L26.8144 20.8179L26.8096 20.8005L26.804 20.7834L26.7931 20.7491C26.7799 20.7034 26.7619 20.6586 26.7462 20.6135C26.739 20.5908 26.7276 20.5691 26.7191 20.5468C26.7098 20.5247 26.7018 20.5022 26.6914 20.4803C26.6809 20.4586 26.6708 20.4367 26.6609 20.4148L26.6462 20.3819L26.629 20.3497C26.6177 20.3282 26.6069 20.3065 26.5962 20.2848L26.5786 20.2526L26.5605 20.221C26.5483 20.1997 26.5367 20.1782 26.5249 20.1567L26.4857 20.0939L26.3972 19.9487L26.3733 19.9082L26.3503 19.8671L26.3061 19.7832L26.2846 19.7411L26.2648 19.6977C26.2518 19.6685 26.2386 19.6396 26.2262 19.6105L26.2167 19.5884L26.2082 19.5659L26.1913 19.5208C26.1803 19.4909 26.1685 19.4611 26.159 19.4303C26.1406 19.3681 26.1202 19.3076 26.1072 19.2436C26.1001 19.2119 26.0919 19.1808 26.0863 19.1487L26.0708 19.0522C26.0539 18.9231 26.0454 18.7926 26.0545 18.6622C26.07 18.4021 26.1413 18.1471 26.2629 17.9275C26.3237 17.8176 26.3966 17.7164 26.4788 17.6261C26.5627 17.537 26.654 17.4556 26.7604 17.3986C26.5929 17.8405 26.5623 18.2585 26.6352 18.6353C26.6402 18.6589 26.6454 18.6824 26.6497 18.7058L26.6675 18.7754C26.6724 18.7985 26.6801 18.8215 26.6869 18.8444C26.6939 18.8671 26.6997 18.8901 26.7082 18.9126L26.7313 18.9804C26.7396 19.0027 26.7489 19.025 26.7573 19.0473L26.7704 19.0806L26.7848 19.1136L26.8137 19.1797C26.8235 19.2016 26.8354 19.2231 26.8456 19.245L26.8613 19.2776L26.8691 19.294L26.878 19.3101C26.89 19.3314 26.9011 19.3531 26.9127 19.3745L26.9299 19.4068L26.9491 19.4384L26.9861 19.5022L27.0055 19.534L27.0259 19.5652L27.1144 19.707L27.1631 19.788C27.1782 19.8158 27.1935 19.8437 27.2081 19.8718L27.23 19.9142L27.2511 19.957C27.2643 19.9861 27.2778 20.015 27.2906 20.0443L27.3098 20.0881L27.3269 20.1334C27.3383 20.1633 27.3495 20.1935 27.3604 20.2237C27.371 20.2538 27.3796 20.2852 27.3891 20.316L27.403 20.3623L27.4152 20.4092L27.4371 20.5038L27.442 20.5276L27.4462 20.5516L27.454 20.5995C27.466 20.6631 27.4707 20.7282 27.4769 20.7924C27.4844 20.9218 27.4835 21.0513 27.4676 21.179C27.4369 21.4339 27.3586 21.6792 27.2381 21.8949C27.1782 22.0029 27.1079 22.1037 27.0288 22.1955C26.9896 22.2413 26.9466 22.2845 26.9028 22.3252C26.8578 22.3655 26.8119 22.4041 26.7604 22.4355Z" fill="white"/>
<path d="M27.6073 21.2246C27.6197 21.1744 27.6308 21.1263 27.6401 21.0779C27.6498 21.0302 27.6581 20.9829 27.6651 20.9362C27.6796 20.843 27.6895 20.7519 27.6945 20.6629C27.7056 20.4854 27.6953 20.3166 27.6705 20.1571C27.6186 19.8381 27.4978 19.5532 27.3263 19.2762L27.2517 19.153C27.2236 19.1072 27.1986 19.0586 27.1736 19.0103L27.1552 18.9739L27.1383 18.9363C27.1271 18.9111 27.116 18.8861 27.1052 18.8607C27.0941 18.8359 27.0856 18.809 27.0757 18.7832C27.0662 18.7572 27.0565 18.7316 27.0484 18.7047C27.0329 18.651 27.0156 18.5983 27.0048 18.5427C26.999 18.5152 26.9922 18.4882 26.9877 18.4605L26.9753 18.3768C26.9619 18.2646 26.9561 18.1512 26.9658 18.0384C26.9827 17.813 27.0495 17.5934 27.1602 17.4066C27.2156 17.3132 27.2813 17.2281 27.3554 17.1531C27.4306 17.0794 27.5127 17.0126 27.6073 16.9686C27.485 17.3572 27.4769 17.7043 27.5465 18.0115C27.5513 18.0308 27.5562 18.05 27.5602 18.069L27.5763 18.1256C27.581 18.1444 27.5876 18.163 27.5936 18.1816L27.6124 18.2372C27.6381 18.3107 27.6703 18.3826 27.7031 18.4541L27.7298 18.5074L27.7571 18.5605L27.7862 18.6132L27.8004 18.6396L27.8166 18.6654L27.8473 18.7179L27.8804 18.7696L27.955 18.8892C28.0684 19.0741 28.1599 19.2786 28.2124 19.4966L28.2306 19.5786C28.237 19.6059 28.2399 19.634 28.2446 19.6617C28.2543 19.7166 28.2579 19.7732 28.2626 19.8288C28.2678 19.941 28.2655 20.0532 28.2498 20.1633C28.2194 20.3835 28.1469 20.5939 28.0374 20.7765C27.9831 20.868 27.9197 20.9527 27.8482 21.029C27.7765 21.1044 27.6982 21.1738 27.6073 21.2246Z" fill="white"/>
<path d="M35.0514 19.2168C37.4864 19.2168 39.4605 17.2429 39.4605 14.8079C39.4605 12.373 37.4864 10.3991 35.0514 10.3991C32.6165 10.3991 30.6426 12.373 30.6426 14.8079C30.6426 17.2429 32.6165 19.2168 35.0514 19.2168Z" fill="#739BB8" stroke="white" stroke-width="0.5"/>
<path d="M37.8592 16.3405C37.835 16.3405 37.8098 16.3397 37.7848 16.3391C35.8812 16.3391 34.1571 16.3391 32.2514 16.3391C32.2262 16.3397 32.201 16.3405 32.1768 16.3405C32.088 16.3409 32.0787 16.3248 32.1225 16.2479C32.1361 16.2242 32.1521 16.1982 32.1682 16.1721C32.7343 15.2001 33.3008 14.2282 33.867 13.2562C34.2325 12.6289 34.5974 12.0013 34.9631 11.374C35.0075 11.2978 35.0259 11.2978 35.0703 11.3738C35.4907 12.0944 35.911 12.8153 36.3314 13.5361C36.7204 14.203 37.1097 14.8697 37.4985 15.5368C37.616 15.7385 37.7328 15.9403 37.8497 16.1424C37.8718 16.1783 37.8947 16.2153 37.9135 16.2479L37.9307 16.282L37.9309 16.2822C37.9511 16.3293 37.9328 16.3409 37.8592 16.3405ZM38.2274 16.1529C38.141 16.0058 38.0551 15.8585 37.9697 15.7106C37.5373 14.9602 37.1057 14.209 36.6727 13.4588C36.2248 12.6824 35.7756 11.9066 35.3273 11.1304C35.2585 11.0112 35.1629 10.9385 35.0197 10.9375C34.8738 10.9364 34.7757 11.0085 34.7061 11.1306C34.5645 11.3782 34.4224 11.6252 34.2798 11.8721C33.8404 12.6337 33.401 13.395 32.9611 14.1559C32.5752 14.8236 32.1884 15.4908 31.8023 16.1583C31.7219 16.2971 31.7349 16.462 31.8364 16.575C31.9198 16.668 32.0304 16.6895 32.149 16.6895C33.1026 16.689 34.0563 16.6892 35.01 16.6892C35.9527 16.6892 36.8954 16.6892 37.8381 16.6892C37.8751 16.6892 37.9121 16.6903 37.9487 16.6874C38.2301 16.6651 38.3699 16.3961 38.2274 16.1529Z" fill="white"/>
<path d="M34.7257 12.1965H35.3126L34.8837 13.7877L35.6963 13.5991L35.1996 15.2713H35.5157L34.8385 16.1074L34.6129 15.2713H34.9288L35.1996 14.1654L34.3418 14.4352L34.7257 12.1965Z" fill="white"/>
</g>
<rect x="1.5" y="1" width="67" height="67" rx="33.5" stroke="white" stroke-width="2"/>
<defs>
<clipPath id="clip0_1489_21598">
<rect x="2.5" y="2" width="65" height="65" rx="32.5" fill="white"/>
</clipPath>
</defs>
</svg>
