<svg width="81" height="80" viewBox="0 0 81 80" fill="none" xmlns="http://www.w3.org/2000/svg">
<rect x="0.5" width="80" height="80" rx="40" fill="#005695" fill-opacity="0.04"/>
<path d="M29.7656 45.8027V48H20.0391V46.125L24.6387 41.1934C25.1009 40.679 25.4655 40.2266 25.7324 39.8359C25.9993 39.4388 26.1914 39.084 26.3086 38.7715C26.4323 38.4525 26.4941 38.1497 26.4941 37.8633C26.4941 37.4336 26.4225 37.0658 26.2793 36.7598C26.1361 36.4473 25.9245 36.2064 25.6445 36.0371C25.3711 35.8678 25.0326 35.7832 24.6289 35.7832C24.1992 35.7832 23.8281 35.8874 23.5156 36.0957C23.2096 36.304 22.9753 36.5938 22.8125 36.9648C22.6562 37.3359 22.5781 37.7559 22.5781 38.2246H19.7559C19.7559 37.3783 19.9577 36.6035 20.3613 35.9004C20.765 35.1908 21.3346 34.6276 22.0703 34.2109C22.806 33.7878 23.6784 33.5762 24.6875 33.5762C25.6836 33.5762 26.5234 33.7389 27.207 34.0645C27.8971 34.3835 28.418 34.8457 28.7695 35.4512C29.1276 36.0501 29.3066 36.7663 29.3066 37.5996C29.3066 38.0684 29.2318 38.5273 29.082 38.9766C28.9323 39.4193 28.7174 39.862 28.4375 40.3047C28.1641 40.7409 27.832 41.1836 27.4414 41.6328C27.0508 42.082 26.6178 42.5475 26.1426 43.0293L23.6719 45.8027H29.7656ZM41.4844 42.6875V44.8945H31.2402L31.1035 43.1855L37.0312 33.7812H39.2676L36.8457 37.834L33.8965 42.6875H41.4844ZM39.873 33.7812V48H37.0605V33.7812H39.873ZM49.1992 33.7812L43.9844 49.2207H41.8945L47.1094 33.7812H49.1992ZM60.0879 33.7812V35.2949L54.5898 48H51.6211L57.1191 35.9785H50.0391V33.7812H60.0879Z" fill="#005695"/>
</svg>

