<svg width="69" height="69" viewBox="0 0 69 69" fill="none" xmlns="http://www.w3.org/2000/svg">
<rect x="1" y="1" width="67" height="67" rx="33.5" fill="white"/>
<path d="M67 34.5C67 52.449 52.449 67 34.5 67C16.551 67 2 52.449 2 34.5C2 16.551 16.551 2 34.5 2C52.449 2 67 16.551 67 34.5Z" fill="#739BB8"/>
<path d="M52.7019 30.8049C52.3552 30.8049 52.0052 30.7036 51.6964 30.4941L34.519 18.0315L17.3416 30.4941C16.5223 31.05 15.4054 30.8373 14.848 30.0162C14.2907 29.1952 14.5058 28.0789 15.3262 27.5219L33.5113 14.3752C34.1188 13.9619 34.9192 13.9619 35.5267 14.3752L53.7107 27.5219C54.5333 28.0789 54.7473 29.1952 54.1911 30.0162C53.8433 30.5276 53.2782 30.8049 52.7019 30.8049Z" fill="white"/>
<path d="M50.6615 53.6555L50.5802 53.6533L49.9771 53.6165H34.5205V50.9451H49.325V27.7989H51.998V52.3198C51.998 52.6885 51.8453 53.0395 51.5778 53.2923C51.3292 53.5263 51.0015 53.6555 50.6615 53.6555Z" fill="white"/>
<path d="M18.7271 53.6555L18.8085 53.6533L19.4115 53.6165H34.8682V50.9451H20.0637V27.7989H17.3906V52.3198C17.3906 52.6885 17.5433 53.0395 17.8109 53.2923C18.0594 53.5263 18.3872 53.6555 18.7271 53.6555Z" fill="white"/>
<path d="M34.5 32.6294L33.5784 31.6235C32.9945 30.9863 32.2404 30.5469 31.4157 30.3575C30.5912 30.1682 29.73 30.2365 28.9427 30.5545C28.1549 30.8727 27.4743 31.4276 26.9923 32.1518C26.5103 32.8762 26.2505 33.7349 26.25 34.6165L34.5 32.6294ZM34.5 32.6294L35.4216 31.6235M34.5 32.6294L35.4216 31.6235M35.4216 31.6235C35.8202 31.1885 36.3002 30.8433 36.8309 30.6077C37.3612 30.3723 37.9318 30.2509 38.5079 30.25M35.4216 31.6235L38.5079 30.25M34.5064 44.63C34.5439 44.6057 34.5843 44.5793 34.6272 44.5511C34.8903 44.378 35.2502 44.134 35.6736 43.8292C36.5226 43.2179 37.6156 42.3702 38.6919 41.3668C39.7727 40.3592 40.8063 39.2227 41.5625 38.038C42.3228 36.8468 42.7497 35.6906 42.75 34.6178L34.5064 44.63ZM34.5064 44.63C34.4678 44.6052 34.4262 44.5782 34.3817 44.5491C34.1179 44.3766 33.757 44.1329 33.3325 43.8282C32.4815 43.2173 31.3871 42.3697 30.3099 41.3664C29.2281 40.3589 28.1941 39.2224 27.4377 38.0378C26.677 36.8465 26.2502 35.6901 26.25 34.6171L34.5064 44.63ZM38.5079 30.25C39.6233 30.2516 40.6984 30.7052 41.4959 31.5207C42.2946 32.3375 42.7487 33.4508 42.75 34.6177L38.5079 30.25Z" stroke="white" stroke-width="2.5"/>
<rect x="1" y="1" width="67" height="67" rx="33.5" stroke="white" stroke-width="2"/>
</svg>
