<svg width="70" height="69" viewBox="0 0 70 69" fill="none" xmlns="http://www.w3.org/2000/svg">
<path d="M67.5 34.5C67.5 52.449 52.949 67 35 67C17.051 67 2.5 52.449 2.5 34.5C2.5 16.551 17.051 2 35 2C52.949 2 67.5 16.551 67.5 34.5Z" fill="#739BB8"/>
<path d="M45.5421 16.779C45.3931 16.779 45.2677 16.7876 45.1756 16.7932L45.1272 16.7961L45.0066 16.8075C42.1317 17.1415 39.7428 19.2557 39.064 22.0711L39.0383 22.1944C38.9633 22.5996 38.9253 23.0019 38.9253 23.391V35.6812C38.9253 36.6045 39.4846 37.4367 40.34 37.7859C40.9448 38.0336 41.2629 38.248 41.4148 38.3714V41.0824C41.1537 41.2959 40.4882 41.6869 39.2035 42.0427C37.6588 42.4707 35.7057 42.706 33.7033 42.7069H33.69H33.6767C31.6762 42.706 29.7241 42.4716 28.1794 42.0446C26.8938 41.6897 26.2273 41.2997 25.9643 41.0862V38.3733C26.1134 38.2518 26.4305 38.0374 27.041 37.7897C27.9012 37.4424 28.4633 36.6074 28.4633 35.6803V23.3929C28.4642 23.1016 28.4718 22.8055 28.487 22.5152L28.4974 22.3757L28.5117 22.1963L28.5212 22.0587C28.5316 21.9116 28.5411 21.7712 28.5535 21.6488L28.5744 21.4894L28.5971 21.3082L28.6161 21.1563C28.6313 21.0254 28.6465 20.902 28.6627 20.7957L28.7044 20.5633L28.7367 20.3877L28.7671 20.2112L28.8136 19.9569L28.8715 19.7054L28.9114 19.5346L28.9513 19.3591L29.0035 19.1332L29.0728 18.8913L29.1222 18.7224L29.1697 18.5516L29.2333 18.3267L29.3092 18.1046L29.3662 17.9376L29.4222 17.7706L29.502 17.5353L29.5865 17.3208L29.652 17.1576L29.7147 16.9954L29.8068 16.7619L29.9093 16.5361L29.9814 16.3795L30.0526 16.2201L30.1485 16.0076L30.2606 15.7884L30.3403 15.6365L30.4182 15.4809L30.5255 15.274L30.6347 15.0833L30.722 14.9324L30.8056 14.7854L30.9356 14.5605L31.0505 14.3802L31.1455 14.235L31.2338 14.0955L31.38 13.8687L31.5006 13.6989L31.6012 13.5575L31.6962 13.4237L31.8557 13.1997L31.9801 13.0413L32.0874 12.9065L32.187 12.7775L32.3617 12.5564L32.4928 12.4046L32.6067 12.2745L32.7121 12.1522L32.8982 11.9368L33.0245 11.8048L33.145 11.6796L33.2514 11.5657L33.4631 11.3446L33.596 11.2175L33.7214 11.0989L33.8353 10.9897L34.0556 10.78L34.1932 10.6605L34.3243 10.5475L34.4429 10.4441L34.6746 10.2429L34.8113 10.1357L34.9481 10.0285L35.0667 9.93455L35.3193 9.73717L35.4703 9.62996L35.6117 9.52842L35.7399 9.43637L35.9868 9.26177L36.152 9.15645L36.2982 9.06251L36.4311 8.97617L36.6789 8.81768L36.8441 8.72374L36.9951 8.63646L37.1328 8.55674C37.2192 8.5055 37.3046 8.45425 37.3929 8.40775L37.5705 8.31571L37.7262 8.23697L37.8695 8.162C37.955 8.1174 38.0404 8.07279 38.1268 8.03009L38.3262 7.93995L38.4848 7.86878L38.6358 7.79951L38.8817 7.68945L39.0877 7.60688L39.2501 7.54331L39.4067 7.48069L39.6545 7.38295L39.8615 7.31273L40.0286 7.25769L40.1872 7.20265C40.2726 7.17228 40.359 7.14192 40.4464 7.1144L40.6685 7.05083L40.8385 7.00339L41.0028 6.95594L41.2534 6.88477L41.4917 6.82878L41.6626 6.78989L41.8316 6.75002L42.0775 6.69405L42.3197 6.64945L42.4943 6.62003L42.6653 6.58775L42.9169 6.54316L43.1542 6.51184L43.3318 6.49002L43.5046 6.46724C43.5929 6.45491 43.6812 6.44258 43.7704 6.4331L44.0021 6.41505L44.1834 6.40177L44.3562 6.38755C44.4493 6.37996 44.5423 6.37142 44.6363 6.36573L44.8642 6.36003L45.0475 6.35528L45.2288 6.35053C45.3209 6.34673 45.413 6.34296 45.5022 6.34296H51.3556L46.3871 4.06651H45.5022C45.3275 4.06651 45.1557 4.07601 44.9829 4.08075C44.8281 4.0855 44.6724 4.08549 44.5186 4.09403C44.3458 4.10257 44.1759 4.11966 44.004 4.1339C43.8483 4.14528 43.6916 4.15381 43.5368 4.16994C43.3697 4.18607 43.2055 4.21169 43.0403 4.23256C42.8836 4.25344 42.7251 4.26958 42.5694 4.29425C42.4089 4.31893 42.2503 4.35118 42.0899 4.37965C41.9332 4.40812 41.7747 4.4328 41.618 4.46412C41.4594 4.49733 41.3047 4.53717 41.1471 4.57323C40.9933 4.61024 40.8366 4.64251 40.6837 4.68142C40.5252 4.72222 40.3695 4.77061 40.2118 4.8152C40.0637 4.85791 39.9137 4.89682 39.7675 4.94237C39.608 4.99266 39.4513 5.04864 39.2937 5.10273C39.1523 5.15112 39.0098 5.19572 38.8703 5.24696C38.7155 5.3039 38.5636 5.36747 38.4107 5.4282C38.2712 5.48323 38.1306 5.53542 37.993 5.59425C37.8401 5.65783 37.692 5.72901 37.542 5.79733C37.4072 5.85901 37.2704 5.91689 37.1375 5.98141C36.9837 6.05543 36.8337 6.13608 36.6818 6.21389C36.5564 6.27842 36.4283 6.34105 36.3048 6.40747C36.152 6.49098 36.0029 6.58112 35.8538 6.66747C35.7342 6.73674 35.6127 6.80221 35.4959 6.87338C35.3487 6.96257 35.2063 7.05841 35.0629 7.15045C34.9462 7.22542 34.8265 7.29849 34.7116 7.3763C34.5673 7.47404 34.4278 7.57747 34.2863 7.679C34.1752 7.75776 34.0632 7.83367 33.9549 7.91528C33.8116 8.02155 33.6739 8.13447 33.5334 8.24549C33.4308 8.3271 33.3254 8.40586 33.2248 8.48842C33.089 8.60039 32.9599 8.71807 32.8279 8.83289C32.7263 8.92113 32.6228 9.00556 32.5231 9.09571C32.395 9.21337 32.2706 9.33579 32.1443 9.45725C32.0475 9.55024 31.9478 9.6404 31.8528 9.73529C31.7294 9.8596 31.6107 9.98865 31.4911 10.1139C31.399 10.2126 31.3031 10.3065 31.2129 10.4071C31.0999 10.5314 30.9917 10.6614 30.8815 10.7876C30.7904 10.8948 30.6945 10.9992 30.6052 11.1074C30.4979 11.2374 30.3973 11.3721 30.2938 11.5031C30.2065 11.6151 30.1163 11.7242 30.0318 11.8371C29.9321 11.969 29.839 12.1076 29.7431 12.2423C29.6605 12.36 29.5732 12.4757 29.4925 12.5953C29.4013 12.73 29.3149 12.8714 29.2266 13.009C29.1478 13.1324 29.0662 13.2529 28.9902 13.3781C28.9057 13.5167 28.8278 13.66 28.7471 13.8004C28.6731 13.9294 28.5962 14.0566 28.524 14.1866C28.4509 14.3223 28.3845 14.4599 28.3142 14.5975C28.242 14.7379 28.1661 14.8774 28.0977 15.0197C28.0303 15.1583 27.9705 15.2997 27.9069 15.4411C27.8414 15.5853 27.7721 15.7276 27.7103 15.8757C27.6477 16.0227 27.5926 16.1736 27.5328 16.3226C27.4768 16.4659 27.417 16.6073 27.3638 16.7515C27.3087 16.9024 27.2612 17.0561 27.21 17.2079C27.1597 17.355 27.1065 17.5011 27.06 17.6492C27.0134 17.7972 26.9745 17.9481 26.9318 18.098C26.8872 18.2536 26.8397 18.4083 26.7989 18.5658C26.7599 18.7157 26.7286 18.8685 26.6935 19.0194C26.6564 19.1797 26.6156 19.3382 26.5824 19.4995C26.5492 19.6608 26.5245 19.824 26.495 19.9873C26.4675 20.1419 26.4362 20.2947 26.4124 20.4503C26.3821 20.642 26.3612 20.8375 26.3374 21.0311C26.3222 21.1601 26.3013 21.2873 26.2881 21.4163C26.2672 21.6213 26.2548 21.8291 26.2406 22.0369C26.232 22.1574 26.2187 22.276 26.213 22.3975C26.196 22.7258 26.1865 23.0579 26.1865 23.391V35.6803C24.6664 36.2952 23.7321 37.098 23.6913 37.9795H23.6875V41.4753C23.7767 43.4139 28.2164 44.9824 33.6843 44.9824H33.69H33.6948C39.1637 44.9824 43.5919 43.4139 43.6926 41.4753V37.9482C43.6318 37.079 42.6928 36.2895 41.2031 35.6812V23.391C41.2031 23.1215 41.2306 22.8596 41.2771 22.6044C41.731 20.7284 43.3137 19.2946 45.2696 19.0678C45.3598 19.0621 45.45 19.0545 45.5421 19.0545H64.382L62.3266 16.779H45.5421Z" fill="white"/>
<path d="M45.0406 13.1702C42.5492 13.1702 40.0892 14.2519 38.2909 16.1355C36.3692 18.1481 35.3105 20.9531 35.3105 24.0323V37.1699L37.5883 36.9631V24.0323C37.5883 19.8116 40.3759 15.4457 45.0406 15.4457C46.6376 15.4457 59.5208 15.4143 61.2906 15.3868L59.4277 13.1256C57.8393 13.1493 46.3546 13.1702 45.0406 13.1702Z" fill="white"/>
<path d="M29.8245 51.2072C29.8245 52.4683 28.7991 53.4922 27.5372 53.4922C26.2754 53.4922 25.25 52.4683 25.25 51.2072C25.25 49.9452 27.5372 47.0292 27.5372 47.0292C27.5372 47.0292 29.8245 49.9452 29.8245 51.2072Z" fill="white"/>
<path d="M36.7183 58.728C36.7183 60.3639 35.3881 61.6934 33.7512 61.6934C32.1134 61.6934 30.7832 60.3639 30.7832 58.728C30.7832 57.0921 33.7512 53.3079 33.7512 53.3079C33.7512 53.3079 36.7183 57.0921 36.7183 58.728Z" fill="white"/>
<rect x="1.5" y="1" width="67" height="67" rx="33.5" stroke="white" stroke-width="2"/>
</svg>
