<svg width="81" height="80" viewBox="0 0 81 80" fill="none" xmlns="http://www.w3.org/2000/svg">
<rect x="0.5" width="80" height="80" rx="40" fill="#005695" fill-opacity="0.04"/>
<mask id="mask0_1489_21663" style="mask-type:alpha" maskUnits="userSpaceOnUse" x="12" y="12" width="57" height="56">
<rect x="12.5" y="12" width="56" height="56" fill="#EBF1F7"/>
</mask>
<g mask="url(#mask0_1489_21663)">
<circle cx="41.375" cy="30.375" r="5.25" fill="#0D3D64" fill-opacity="0.3"/>
<path d="M30 47C30 47 31.351 39.9077 34.225 37.7943C36.4539 36.1553 39.6221 36.539 41.05 36.539C42.4779 36.539 46.0152 36.3918 48.2 37.7943C51.358 39.8216 52.75 47 52.75 47H30Z" fill="#0D3D64" fill-opacity="0.3"/>
<path d="M53.6216 45.5802V44.6128C53.4024 44.79 52.826 45.2063 52.242 45.2063C51.5036 45.2063 50.7641 44.5311 50.7641 44.5311C50.7641 44.5311 50.7561 44.5402 50.7396 44.5531V44.5515C50.626 44.6504 50.1051 45.0769 49.5336 45.1827H49.5313C49.4927 45.1905 49.4518 45.1962 49.4117 45.2002H49.4051C49.365 45.2044 49.3258 45.2063 49.2855 45.2063C48.5471 45.2061 47.8102 44.5311 47.8102 44.5311H47.8094V44.5319L47.8076 44.5311C47.8076 44.5311 47.0692 45.2063 46.3307 45.2063C45.9904 45.2063 45.6538 45.0626 45.3861 44.9084C45.2384 44.8213 45.0895 44.693 44.9608 44.5303C44.8355 44.3727 44.748 44.2051 44.6972 44.0457H44.6948L42.032 35.625L39.0338 45.0503L29.125 44.9829L37.1808 50.7429L34.0556 60.125L42.032 54.2591L50.0069 60.125L47.2075 51.7216C46.9505 51.8495 46.6402 51.9623 46.3258 51.9623C45.5881 51.9623 44.8487 51.3446 44.8487 51.3446C44.8487 51.3446 44.1108 51.9623 43.3716 51.9623C42.6339 51.9623 41.8944 51.2883 41.8944 51.2883C41.8944 51.2883 41.8938 51.3446 41.8933 51.3446V50.244C41.8938 50.244 41.8944 50.244 41.8944 50.244C41.8944 50.244 42.6339 50.9197 43.3716 50.9197C44.1108 50.9197 44.8487 50.244 44.8487 50.244C44.8487 50.244 45.5881 50.9197 46.3258 50.9197C46.9709 50.9197 47.6152 50.4054 47.7693 50.2746V49.1067C47.612 49.2289 46.9709 49.6957 46.3281 49.6957C45.5887 49.6957 44.852 49.0773 44.852 49.0773C44.852 49.0773 44.1125 49.6957 43.374 49.6957C42.6355 49.6957 41.897 49.0209 41.897 49.0209C41.897 49.0209 41.8961 49.0773 41.8952 49.0773V47.9775C41.8961 47.9775 41.897 47.9775 41.897 47.9775C41.897 47.9775 42.6355 48.6524 43.374 48.6524C44.1125 48.6524 44.852 47.9775 44.852 47.9775C44.852 47.9775 45.5887 48.6524 46.3281 48.6524C47.0667 48.6524 47.8061 47.9775 47.8061 47.9775L47.807 47.9779V47.9775C47.8076 47.9775 47.8094 47.9775 47.8094 47.9775C47.8094 47.9775 48.5454 48.6516 49.2831 48.6524C49.3241 48.6524 49.3641 48.6508 49.4036 48.6467C49.4051 48.6467 49.4074 48.6467 49.41 48.646C49.4503 48.6422 49.4903 48.6365 49.5305 48.6291C49.5305 48.6291 49.5305 48.6286 49.5313 48.6286C49.7685 48.5849 49.9946 48.4856 50.1887 48.3779L50.725 47.9942V46.8119C50.5898 46.9144 50.0862 47.2756 49.5313 47.3778C49.5305 47.3778 49.5305 47.3782 49.5305 47.3782C49.4903 47.385 49.4503 47.3909 49.41 47.3945C49.4074 47.3949 49.4051 47.3949 49.4036 47.3954C49.3641 47.3989 49.3249 47.4011 49.2848 47.4011H49.2831C48.5454 47.4011 47.8061 46.7826 47.8061 46.7826C47.8061 46.7826 47.0667 47.4011 46.3281 47.4011C45.5887 47.4011 44.852 46.7826 44.852 46.7826C44.852 46.7826 44.1125 47.4011 43.374 47.4011C42.6355 47.4011 41.897 46.7267 41.897 46.7267C41.897 46.7267 41.8961 46.7826 41.8952 46.7826V45.6824C41.8961 45.6824 41.897 45.6824 41.897 45.6824V45.7143C41.897 45.7143 41.8977 45.6987 41.8977 45.6832C41.9052 45.6896 42.6387 46.3581 43.374 46.3581C43.7055 46.3581 44.034 46.2208 44.2993 46.0704C44.6252 45.9013 44.8536 45.7143 44.8536 45.7143C44.8536 45.7143 45.0607 45.8854 45.3628 46.048C45.6339 46.2069 45.9793 46.3581 46.3281 46.3581C46.6598 46.3581 46.9872 46.2212 47.2517 46.0713C47.5784 45.9021 47.8076 45.7143 47.8076 45.7143C47.8076 45.7143 48.0305 45.8973 48.3497 46.0643C48.6158 46.2167 48.9474 46.3576 49.2831 46.3581C49.3241 46.3581 49.3641 46.3556 49.4036 46.3523C49.4051 46.352 49.4074 46.3515 49.41 46.3515C49.4503 46.3475 49.4903 46.3417 49.5305 46.3344C49.5305 46.3344 49.5305 46.3344 49.5313 46.3344C49.826 46.28 50.1051 46.1408 50.3237 46.0047C50.5874 45.8564 50.7641 45.7143 50.7641 45.7143C50.7641 45.7143 50.9753 45.8879 51.2809 46.0516C51.5511 46.2093 51.8943 46.3581 52.2407 46.3581C52.5591 46.3581 52.8741 46.2314 53.133 46.0884C53.3466 45.9806 53.5218 45.8625 53.6216 45.7889V45.7633C53.6232 45.7621 53.6237 45.7616 53.625 45.7604V45.5802H53.6216Z" fill="#005695"/>
<path d="M65.8728 40.2748V39.6529C65.7319 39.7668 65.3614 40.0344 64.9859 40.0344C64.5113 40.0344 64.0359 39.6004 64.0359 39.6004C64.0359 39.6004 64.0307 39.6062 64.0201 39.6145V39.6135C63.9471 39.677 63.6122 39.9512 63.2448 40.0192H63.2434C63.2185 40.0243 63.1922 40.0279 63.1665 40.0305H63.1622C63.1364 40.0332 63.1112 40.0344 63.0853 40.0344C62.6107 40.0343 62.1369 39.6004 62.1369 39.6004H62.1364V39.6009L62.1352 39.6004C62.1352 39.6004 61.6606 40.0344 61.1858 40.0344C60.967 40.0344 60.7507 39.942 60.5785 39.8429C60.4836 39.7869 60.3879 39.7044 60.3052 39.5998C60.2246 39.4985 60.1684 39.3908 60.1357 39.2883H60.1342L58.4224 33.875L56.4949 39.9341L50.125 39.8908L55.3037 43.5937L53.2946 49.625L58.4224 45.854L63.5491 49.625L61.7495 44.2228C61.5842 44.305 61.3848 44.3775 61.1827 44.3775C60.7084 44.3775 60.2331 43.9805 60.2331 43.9805C60.2331 43.9805 59.7587 44.3775 59.2835 44.3775C58.8093 44.3775 58.3339 43.9443 58.3339 43.9443C58.3339 43.9443 58.3335 43.9805 58.3332 43.9805V43.273C58.3335 43.273 58.3339 43.273 58.3339 43.273C58.3339 43.273 58.8093 43.7073 59.2835 43.7073C59.7587 43.7073 60.2331 43.273 60.2331 43.273C60.2331 43.273 60.7084 43.7073 61.1827 43.7073C61.5974 43.7073 62.0116 43.3767 62.1106 43.2926V42.5418C62.0095 42.6204 61.5974 42.9205 61.1842 42.9205C60.7088 42.9205 60.2352 42.5229 60.2352 42.5229C60.2352 42.5229 59.7598 42.9205 59.2851 42.9205C58.8103 42.9205 58.3355 42.4867 58.3355 42.4867C58.3355 42.4867 58.335 42.5229 58.3344 42.5229V41.8159C58.335 41.8159 58.3355 41.8159 58.3355 41.8159C58.3355 41.8159 58.8103 42.2497 59.2851 42.2497C59.7598 42.2497 60.2352 41.8159 60.2352 41.8159C60.2352 41.8159 60.7088 42.2497 61.1842 42.2497C61.6589 42.2497 62.1343 41.8159 62.1343 41.8159L62.1349 41.8162V41.8159C62.1352 41.8159 62.1364 41.8159 62.1364 41.8159C62.1364 41.8159 62.6095 42.2493 63.0838 42.2497C63.1101 42.2497 63.1359 42.2487 63.1612 42.2461C63.1622 42.2461 63.1637 42.2461 63.1653 42.2456C63.1912 42.2432 63.217 42.2395 63.2428 42.2348C63.2428 42.2348 63.2428 42.2345 63.2434 42.2345C63.3958 42.2064 63.5412 42.1426 63.6659 42.0733L64.0107 41.8266V41.0666C63.9238 41.1325 63.6001 41.3647 63.2434 41.4304C63.2428 41.4304 63.2428 41.4306 63.2428 41.4306C63.217 41.435 63.1912 41.4388 63.1653 41.4411C63.1637 41.4414 63.1622 41.4414 63.1612 41.4417C63.1359 41.444 63.1107 41.4453 63.0849 41.4453H63.0838C62.6095 41.4453 62.1343 41.0478 62.1343 41.0478C62.1343 41.0478 61.6589 41.4453 61.1842 41.4453C60.7088 41.4453 60.2352 41.0478 60.2352 41.0478C60.2352 41.0478 59.7598 41.4453 59.2851 41.4453C58.8103 41.4453 58.3355 41.0118 58.3355 41.0118C58.3355 41.0118 58.335 41.0478 58.3344 41.0478V40.3405C58.335 40.3405 58.3355 40.3405 58.3355 40.3405V40.361C58.3355 40.361 58.3361 40.351 58.3361 40.341C58.3408 40.3451 58.8124 40.7748 59.2851 40.7748C59.4982 40.7748 59.7094 40.6866 59.8799 40.5899C60.0894 40.4812 60.2363 40.361 60.2363 40.361C60.2363 40.361 60.3694 40.471 60.5636 40.5755C60.7379 40.6776 60.9599 40.7748 61.1842 40.7748C61.3973 40.7748 61.6078 40.6869 61.7779 40.5905C61.9879 40.4817 62.1352 40.361 62.1352 40.361C62.1352 40.361 62.2785 40.4786 62.4837 40.586C62.6548 40.684 62.868 40.7746 63.0838 40.7748C63.1101 40.7748 63.1359 40.7732 63.1612 40.7711C63.1622 40.7709 63.1637 40.7706 63.1653 40.7706C63.1912 40.768 63.217 40.7643 63.2428 40.7596C63.2428 40.7596 63.2428 40.7596 63.2434 40.7596C63.4328 40.7246 63.6122 40.6351 63.7528 40.5476C63.9222 40.4523 64.0359 40.361 64.0359 40.361C64.0359 40.361 64.1716 40.4726 64.3681 40.5778C64.5417 40.6792 64.7624 40.7748 64.9851 40.7748C65.1897 40.7748 65.3923 40.6934 65.5587 40.6014C65.696 40.5322 65.8087 40.4563 65.8728 40.4089V40.3925C65.8738 40.3917 65.8741 40.3914 65.875 40.3906V40.2748H65.8728Z" fill="#005695"/>
<path d="M31.7478 40.2748V39.6529C31.6069 39.7668 31.2364 40.0344 30.8609 40.0344C30.3863 40.0344 29.9109 39.6004 29.9109 39.6004C29.9109 39.6004 29.9057 39.6062 29.8951 39.6145V39.6135C29.8221 39.677 29.4872 39.9512 29.1198 40.0192H29.1184C29.0935 40.0243 29.0672 40.0279 29.0415 40.0305H29.0372C29.0114 40.0332 28.9862 40.0344 28.9603 40.0344C28.4857 40.0343 28.0119 39.6004 28.0119 39.6004H28.0114V39.6009L28.0102 39.6004C28.0102 39.6004 27.5356 40.0344 27.0608 40.0344C26.842 40.0344 26.6257 39.942 26.4535 39.8429C26.3586 39.7869 26.2629 39.7044 26.1802 39.5998C26.0996 39.4985 26.0434 39.3908 26.0107 39.2883H26.0092L24.2974 33.875L22.3699 39.9341L16 39.8908L21.1787 43.5937L19.1696 49.625L24.2974 45.854L29.4241 49.625L27.6245 44.2228C27.4592 44.305 27.2598 44.3775 27.0577 44.3775C26.5834 44.3775 26.1081 43.9805 26.1081 43.9805C26.1081 43.9805 25.6337 44.3775 25.1585 44.3775C24.6843 44.3775 24.2089 43.9443 24.2089 43.9443C24.2089 43.9443 24.2085 43.9805 24.2082 43.9805V43.273C24.2085 43.273 24.2089 43.273 24.2089 43.273C24.2089 43.273 24.6843 43.7073 25.1585 43.7073C25.6337 43.7073 26.1081 43.273 26.1081 43.273C26.1081 43.273 26.5834 43.7073 27.0577 43.7073C27.4724 43.7073 27.8866 43.3767 27.9856 43.2926V42.5418C27.8845 42.6204 27.4724 42.9205 27.0592 42.9205C26.5838 42.9205 26.1102 42.5229 26.1102 42.5229C26.1102 42.5229 25.6348 42.9205 25.1601 42.9205C24.6853 42.9205 24.2105 42.4867 24.2105 42.4867C24.2105 42.4867 24.21 42.5229 24.2094 42.5229V41.8159C24.21 41.8159 24.2105 41.8159 24.2105 41.8159C24.2105 41.8159 24.6853 42.2497 25.1601 42.2497C25.6348 42.2497 26.1102 41.8159 26.1102 41.8159C26.1102 41.8159 26.5838 42.2497 27.0592 42.2497C27.5339 42.2497 28.0093 41.8159 28.0093 41.8159L28.0099 41.8162V41.8159C28.0102 41.8159 28.0114 41.8159 28.0114 41.8159C28.0114 41.8159 28.4845 42.2493 28.9588 42.2497C28.9851 42.2497 29.0109 42.2487 29.0362 42.2461C29.0372 42.2461 29.0387 42.2461 29.0403 42.2456C29.0662 42.2432 29.092 42.2395 29.1178 42.2348C29.1178 42.2348 29.1178 42.2345 29.1184 42.2345C29.2708 42.2064 29.4162 42.1426 29.5409 42.0733L29.8857 41.8266V41.0666C29.7988 41.1325 29.4751 41.3647 29.1184 41.4304C29.1178 41.4304 29.1178 41.4306 29.1178 41.4306C29.092 41.435 29.0662 41.4388 29.0403 41.4411C29.0387 41.4414 29.0372 41.4414 29.0362 41.4417C29.0109 41.444 28.9857 41.4453 28.9599 41.4453H28.9588C28.4845 41.4453 28.0093 41.0478 28.0093 41.0478C28.0093 41.0478 27.5339 41.4453 27.0592 41.4453C26.5838 41.4453 26.1102 41.0478 26.1102 41.0478C26.1102 41.0478 25.6348 41.4453 25.1601 41.4453C24.6853 41.4453 24.2105 41.0118 24.2105 41.0118C24.2105 41.0118 24.21 41.0478 24.2094 41.0478V40.3405C24.21 40.3405 24.2105 40.3405 24.2105 40.3405V40.361C24.2105 40.361 24.2111 40.351 24.2111 40.341C24.2158 40.3451 24.6874 40.7748 25.1601 40.7748C25.3732 40.7748 25.5844 40.6866 25.7549 40.5899C25.9644 40.4812 26.1113 40.361 26.1113 40.361C26.1113 40.361 26.2444 40.471 26.4386 40.5755C26.6129 40.6776 26.8349 40.7748 27.0592 40.7748C27.2723 40.7748 27.4828 40.6869 27.6529 40.5905C27.8629 40.4817 28.0102 40.361 28.0102 40.361C28.0102 40.361 28.1535 40.4786 28.3587 40.586C28.5298 40.684 28.743 40.7746 28.9588 40.7748C28.9851 40.7748 29.0109 40.7732 29.0362 40.7711C29.0372 40.7709 29.0387 40.7706 29.0403 40.7706C29.0662 40.768 29.092 40.7643 29.1178 40.7596C29.1178 40.7596 29.1178 40.7596 29.1184 40.7596C29.3078 40.7246 29.4872 40.6351 29.6278 40.5476C29.7972 40.4523 29.9109 40.361 29.9109 40.361C29.9109 40.361 30.0466 40.4726 30.2431 40.5778C30.4167 40.6792 30.6374 40.7748 30.8601 40.7748C31.0647 40.7748 31.2673 40.6934 31.4337 40.6014C31.571 40.5322 31.6837 40.4563 31.7478 40.4089V40.3925C31.7488 40.3917 31.7491 40.3914 31.75 40.3906V40.2748H31.7478Z" fill="#005695"/>
</g>
</svg>
