
<svg width="21" height="20" viewBox="0 0 21 20" fill="none" xmlns="http://www.w3.org/2000/svg">
<g id="clarity:close-line" clip-path="url(#clip0_1489_602)">
<path id="Vector" d="M11.2841 9.99997L15.8896 5.39441C15.9806 5.28813 16.0282 5.15142 16.0228 5.0116C16.0174 4.87178 15.9594 4.73915 15.8605 4.64021C15.7616 4.54127 15.6289 4.48331 15.4891 4.47791C15.3493 4.4725 15.2126 4.52006 15.1063 4.61108L10.5007 9.21663L5.89519 4.60552C5.79058 4.50091 5.64869 4.44214 5.50074 4.44214C5.3528 4.44214 5.21091 4.50091 5.1063 4.60552C5.00169 4.71014 4.94292 4.85202 4.94292 4.99997C4.94292 5.14791 5.00169 5.2898 5.1063 5.39441L9.71741 9.99997L5.1063 14.6055C5.04814 14.6553 5.00091 14.7166 4.96756 14.7855C4.93422 14.8545 4.91548 14.9295 4.91252 15.006C4.90957 15.0826 4.92246 15.1589 4.95039 15.2301C4.97832 15.3014 5.02069 15.3662 5.07483 15.4203C5.12897 15.4745 5.19372 15.5168 5.26501 15.5448C5.3363 15.5727 5.4126 15.5856 5.48911 15.5826C5.56562 15.5797 5.64069 15.5609 5.70962 15.5276C5.77854 15.4942 5.83983 15.447 5.88963 15.3889L10.5007 10.7833L15.1063 15.3889C15.2126 15.4799 15.3493 15.5274 15.4891 15.522C15.6289 15.5166 15.7616 15.4587 15.8605 15.3597C15.9594 15.2608 16.0174 15.1282 16.0228 14.9883C16.0282 14.8485 15.9806 14.7118 15.8896 14.6055L11.2841 9.99997Z" fill="#656565"/>
</g>
<defs>
<clipPath id="clip0_1489_602">
<rect width="20" height="20" fill="white" transform="translate(0.5)"/>
</clipPath>
</defs>
</svg>
